<mxfile host="app.diagrams.net" modified="2023-12-04T07:12:46.169Z" agent="Mozilla/5.0 (Macintosh; Intel Mac OS X 10_15_7) AppleWebKit/537.36 (KHTML, like Gecko) Chrome/119.0.0.0 Safari/537.36" version="22.1.5" etag="fwggwBHut8zU3LaivqAw" type="github">
  <diagram name="第 1 页" id="S6g28f49ktNwj9GdCdby">
    <mxGraphModel>
      <root>
        <mxCell id="0" />
        <mxCell id="1" parent="0" />
      </root>
    </mxGraphModel>
  </diagram>
</mxfile>
